<?xml version="1.0" encoding="iso-8859-1"?>
<!-- Uploaded to: SVG Repo, www.svgrepo.com, Generator: SVG Repo Mixer Tools -->
<svg height="800px" width="800px" version="1.1" id="Layer_1" xmlns="http://www.w3.org/2000/svg" xmlns:xlink="http://www.w3.org/1999/xlink"
	 viewBox="0 0 512 512" xml:space="preserve">
<path style="fill:#F0C419;" d="M499.311,303.609v148.093c0,26.292-21.317,47.609-47.609,47.609H303.596
	c-26.292,0-47.596-21.317-47.596-47.609V303.609C256,277.317,277.305,256,303.596,256h26.457h121.649
	C477.994,256,499.311,277.317,499.311,303.609z"/>
<path style="fill:#FB7B76;" d="M377.662,60.298v148.093c0,26.292-21.317,47.609-47.609,47.609h-26.457h-95.205h-26.444
	c-26.292,0-47.596-21.317-47.596-47.609V60.298c0-26.292,21.305-47.609,47.596-47.609h148.106
	C356.344,12.689,377.662,34.006,377.662,60.298z"/>
<g>
	<path style="fill:#97C2F7;" d="M256,303.609v148.093c0,26.292-21.317,47.609-47.609,47.609H60.298
		c-26.292,0-47.609-21.317-47.609-47.609V303.609c0-26.292,21.317-47.609,47.609-47.609h121.649h26.444
		C234.683,256,256,277.317,256,303.609z M169.119,345.356c0-17.841-14.465-32.306-32.306-32.306H99.57v64.612v64.6h37.242
		c8.92,0,16.991-3.616,22.84-9.466c5.85-5.837,9.466-13.92,9.466-22.84c0-17.841-14.465-32.293-32.306-32.293
		c8.92,0,16.991-3.616,22.84-9.466C165.502,362.346,169.119,354.276,169.119,345.356z"/>
	<path style="fill:#97C2F7;" d="M136.813,313.05c17.841,0,32.306,14.465,32.306,32.306c0,8.92-3.616,16.991-9.466,22.84
		c-5.85,5.85-13.92,9.466-22.84,9.466H99.57V313.05H136.813z"/>
	<path style="fill:#97C2F7;" d="M136.813,377.662c17.841,0,32.306,14.453,32.306,32.293c0,8.92-3.616,17.003-9.466,22.84
		c-5.85,5.85-13.92,9.466-22.84,9.466H99.57v-64.6H136.813z"/>
</g>
<path d="M60.298,512h148.093c19.338,0,36.566-9.16,47.608-23.359C267.038,502.839,284.262,512,303.596,512h148.106
	C484.951,512,512,484.951,512,451.702V303.609c0-33.249-27.049-60.298-60.298-60.298h-72.539
	c7.032-9.862,11.188-21.911,11.188-34.92V60.298C390.351,27.049,363.302,0,330.053,0c-7.008,0-12.689,5.681-12.689,12.689
	s5.681,12.689,12.689,12.689c19.255,0,34.92,15.665,34.92,34.92v148.093c0,19.256-15.665,34.92-34.92,34.92H181.947
	c-19.248,0-34.907-15.665-34.907-34.92V60.298c0-19.256,15.659-34.92,34.907-34.92h68.977c7.008,0,12.689-5.681,12.689-12.689
	S257.933,0,250.924,0h-68.977c-33.241,0-60.285,27.049-60.285,60.298v148.093c0,13.009,4.154,25.058,11.185,34.92H60.298
	C27.049,243.311,0,270.36,0,303.609v148.093C0,484.951,27.049,512,60.298,512z M486.622,303.609v148.093
	c0,19.255-15.665,34.92-34.92,34.92H303.596c-19.248,0-34.907-15.665-34.907-34.92V303.609c0-19.256,15.659-34.92,34.907-34.92
	h26.457h121.649C470.958,268.689,486.622,284.354,486.622,303.609z M25.378,303.609c0-19.256,15.665-34.92,34.92-34.92h121.649
	h26.444c19.256,0,34.92,15.665,34.92,34.92v148.093c0,19.255-15.665,34.92-34.92,34.92H60.298c-19.256,0-34.92-15.665-34.92-34.92
	V303.609z"/>
<path d="M287.405,25.378h5.076c7.008,0,12.689-5.681,12.689-12.689S299.489,0,292.481,0h-5.076c-7.008,0-12.689,5.681-12.689,12.689
	S280.397,25.378,287.405,25.378z"/>
<path d="M264.512,60.342c-0.148-0.133-0.294-0.269-0.448-0.395c-0.166-0.137-0.34-0.265-0.514-0.393
	c-0.159-0.117-0.315-0.233-0.478-0.344c-0.175-0.117-0.357-0.226-0.538-0.335c-0.179-0.107-0.358-0.213-0.541-0.312
	c-0.173-0.093-0.35-0.178-0.529-0.263c-0.208-0.099-0.416-0.194-0.629-0.283c-0.077-0.032-0.15-0.072-0.228-0.103
	c-0.098-0.038-0.197-0.062-0.294-0.098c-0.22-0.08-0.44-0.154-0.664-0.221c-0.185-0.056-0.371-0.108-0.557-0.155
	c-0.212-0.053-0.425-0.1-0.641-0.143c-0.198-0.039-0.396-0.075-0.594-0.104c-0.208-0.03-0.416-0.055-0.626-0.076
	c-0.204-0.02-0.407-0.037-0.61-0.047c-0.208-0.01-0.416-0.013-0.626-0.013c-0.204,0-0.407,0.003-0.61,0.013
	c-0.208,0.01-0.416,0.028-0.626,0.048c-0.204,0.02-0.409,0.043-0.612,0.074c-0.202,0.03-0.404,0.066-0.605,0.107
	c-0.212,0.042-0.421,0.089-0.631,0.141c-0.188,0.047-0.376,0.099-0.562,0.156c-0.223,0.067-0.443,0.141-0.662,0.221
	c-0.098,0.036-0.197,0.06-0.294,0.098c-0.079,0.03-0.151,0.07-0.228,0.103c-0.213,0.088-0.423,0.184-0.631,0.283
	c-0.178,0.085-0.355,0.17-0.528,0.263c-0.184,0.099-0.363,0.204-0.542,0.312c-0.181,0.109-0.363,0.218-0.538,0.335
	c-0.162,0.109-0.32,0.226-0.477,0.344c-0.174,0.129-0.348,0.256-0.514,0.393c-0.154,0.126-0.301,0.261-0.448,0.395
	c-0.155,0.141-0.311,0.279-0.458,0.426c-0.148,0.148-0.289,0.306-0.431,0.463c-0.132,0.146-0.264,0.289-0.388,0.442
	c-0.14,0.169-0.269,0.346-0.4,0.523c-0.114,0.155-0.23,0.308-0.336,0.468c-0.119,0.178-0.23,0.362-0.34,0.547
	c-0.105,0.176-0.211,0.351-0.307,0.532c-0.094,0.176-0.181,0.357-0.268,0.538c-0.098,0.204-0.19,0.409-0.278,0.618
	c-0.033,0.08-0.074,0.154-0.105,0.235l-50.337,129.212c-2.544,6.53,0.688,13.886,7.217,16.43c1.514,0.59,3.071,0.869,4.602,0.869
	c5.077,0,9.872-3.069,11.826-8.087l11.972-30.733h53.082l11.972,30.733c1.954,5.017,6.748,8.087,11.826,8.087
	c1.532,0,3.09-0.279,4.602-0.869c6.53-2.544,9.762-9.9,7.217-16.43L267.819,65.134c-0.032-0.081-0.072-0.155-0.105-0.235
	c-0.086-0.208-0.18-0.414-0.277-0.617c-0.086-0.183-0.174-0.363-0.268-0.539c-0.096-0.18-0.2-0.355-0.306-0.53
	c-0.11-0.185-0.222-0.371-0.341-0.548c-0.107-0.16-0.222-0.313-0.336-0.468c-0.131-0.176-0.261-0.354-0.4-0.523
	c-0.124-0.151-0.256-0.294-0.388-0.44c-0.142-0.157-0.283-0.315-0.433-0.464C264.821,60.622,264.667,60.482,264.512,60.342z
	 M239.346,147.446L256,104.694l16.654,42.752H239.346z"/>
<path d="M99.57,454.95h37.242c12.014,0,23.312-4.681,31.802-13.172c8.508-8.489,13.193-19.79,13.193-31.823
	c0-12.657-5.265-24.103-13.71-32.285c0.175-0.169,0.355-0.33,0.527-0.502c8.502-8.5,13.183-19.799,13.183-31.813
	c0-24.811-20.184-44.995-44.995-44.995H99.57c-7.008,0-12.689,5.681-12.689,12.689v64.612v64.6
	C86.881,449.27,92.562,454.95,99.57,454.95z M156.43,409.955c0,5.243-2.038,10.165-5.749,13.868
	c-3.708,3.708-8.632,5.749-13.868,5.749h-24.553v-39.222h24.553C147.629,390.351,156.43,399.146,156.43,409.955z M136.813,325.739
	c10.816,0,19.617,8.801,19.617,19.617c0,5.235-2.042,10.16-5.749,13.868c-3.708,3.708-8.632,5.749-13.868,5.749h-24.553v-39.234
	L136.813,325.739L136.813,325.739z"/>
<path d="M329.342,406.643c0,26.637,21.677,48.307,48.32,48.307c26.637,0,48.307-21.67,48.307-48.307
	c0-7.008-5.681-12.689-12.689-12.689c-7.008,0-12.689,5.681-12.689,12.689c0,12.643-10.286,22.929-22.929,22.929
	c-12.65,0-22.942-10.286-22.942-22.929v-57.976c0-12.643,10.292-22.929,22.942-22.929c12.643,0,22.929,10.286,22.929,22.929
	c0,7.008,5.681,12.689,12.689,12.689c7.008,0,12.689-5.681,12.689-12.689c0-26.637-21.67-48.307-48.307-48.307
	c-26.644,0-48.32,21.67-48.32,48.307V406.643z"/>
</svg>
